<svg xmlns="http://www.w3.org/2000/svg" xmlns:xlink="http://www.w3.org/1999/xlink" width="500" zoomAndPan="magnify" viewBox="0 0 375 374.999991" height="500" preserveAspectRatio="xMidYMid meet" version="1.0"><defs><g/><clipPath id="8e6e0e5a75"><path d="M 195 136 L 253.042969 136 L 253.042969 195.351562 L 195 195.351562 Z M 195 136 " clip-rule="nonzero"/></clipPath><clipPath id="9ce879a4fd"><path d="M 121.855469 136 L 205 136 L 205 195.351562 L 121.855469 195.351562 Z M 121.855469 136 " clip-rule="nonzero"/></clipPath><clipPath id="0eba6445a3"><path d="M 192 104.601562 L 215 104.601562 L 215 127 L 192 127 Z M 192 104.601562 " clip-rule="nonzero"/></clipPath><clipPath id="975a8a5376"><path d="M 160 104.601562 L 183 104.601562 L 183 127 L 160 127 Z M 160 104.601562 " clip-rule="nonzero"/></clipPath></defs><g fill="#ffffff" fill-opacity="1"><g transform="translate(42.34932, 241.307972)"><g><path d="M 2.984375 0 L 2.984375 -24.84375 L 7.765625 -24.84375 L 18.734375 -9.71875 L 18.734375 -24.84375 L 24.34375 -24.84375 L 24.34375 0 L 19.546875 0 L 8.59375 -15.21875 L 8.59375 0 Z M 2.984375 0 "/></g></g></g><g fill="#ffffff" fill-opacity="1"><g transform="translate(76.760266, 241.307972)"><g><path d="M 13.125 0.5 C 10.976562 0.5 9.128906 0.0664062 7.578125 -0.796875 C 6.023438 -1.660156 4.828125 -2.890625 3.984375 -4.484375 C 3.148438 -6.085938 2.734375 -8 2.734375 -10.21875 L 2.734375 -24.84375 L 8.375 -24.84375 L 8.375 -10.609375 C 8.375 -6.773438 9.957031 -4.859375 13.125 -4.859375 C 16.300781 -4.859375 17.890625 -6.773438 17.890625 -10.609375 L 17.890625 -24.84375 L 23.53125 -24.84375 L 23.53125 -10.21875 C 23.53125 -8 23.109375 -6.085938 22.265625 -4.484375 C 21.421875 -2.890625 20.222656 -1.660156 18.671875 -0.796875 C 17.128906 0.0664062 15.28125 0.5 13.125 0.5 Z M 13.125 0.5 "/></g></g></g><g fill="#ffffff" fill-opacity="1"><g transform="translate(110.107036, 241.307972)"><g><path d="M 11.640625 0.5 C 9.554688 0.5 7.765625 0.15625 6.265625 -0.53125 C 4.765625 -1.21875 3.601562 -2.191406 2.78125 -3.453125 C 1.96875 -4.722656 1.5625 -6.207031 1.5625 -7.90625 L 7.09375 -7.90625 C 7.09375 -6.726562 7.5 -5.804688 8.3125 -5.140625 C 9.132812 -4.484375 10.234375 -4.15625 11.609375 -4.15625 C 12.785156 -4.15625 13.71875 -4.382812 14.40625 -4.84375 C 15.09375 -5.300781 15.4375 -5.945312 15.4375 -6.78125 C 15.4375 -7.65625 15.019531 -8.363281 14.1875 -8.90625 C 13.363281 -9.445312 12.078125 -9.910156 10.328125 -10.296875 C 7.421875 -10.910156 5.269531 -11.84375 3.875 -13.09375 C 2.476562 -14.34375 1.78125 -15.972656 1.78125 -17.984375 C 1.78125 -20.253906 2.601562 -22.046875 4.25 -23.359375 C 5.90625 -24.671875 8.164062 -25.328125 11.03125 -25.328125 C 13 -25.328125 14.703125 -24.988281 16.140625 -24.3125 C 17.585938 -23.644531 18.707031 -22.703125 19.5 -21.484375 C 20.289062 -20.265625 20.6875 -18.816406 20.6875 -17.140625 L 15.265625 -17.140625 C 15.265625 -18.253906 14.894531 -19.128906 14.15625 -19.765625 C 13.425781 -20.398438 12.410156 -20.71875 11.109375 -20.71875 C 9.921875 -20.71875 8.984375 -20.488281 8.296875 -20.03125 C 7.617188 -19.570312 7.28125 -18.925781 7.28125 -18.09375 C 7.28125 -17.34375 7.65625 -16.707031 8.40625 -16.1875 C 9.164062 -15.664062 10.492188 -15.175781 12.390625 -14.71875 C 15.484375 -13.988281 17.71875 -13.007812 19.09375 -11.78125 C 20.46875 -10.550781 21.15625 -8.953125 21.15625 -6.984375 C 21.15625 -4.648438 20.304688 -2.816406 18.609375 -1.484375 C 16.921875 -0.160156 14.597656 0.5 11.640625 0.5 Z M 11.640625 0.5 "/></g></g></g><g fill="#ffffff" fill-opacity="1"><g transform="translate(139.942034, 241.307972)"><g><path d="M 0.3125 0 L 10.1875 -24.84375 L 15.71875 -24.84375 L 25.578125 0 L 19.546875 0 L 17.890625 -4.296875 L 8.015625 -4.296875 L 6.359375 0 Z M 9.46875 -8.734375 L 16.46875 -8.734375 L 12.953125 -17.8125 Z M 9.46875 -8.734375 "/></g></g></g><g fill="#ffffff" fill-opacity="1"><g transform="translate(172.934089, 241.307972)"><g><path d="M 2.984375 0 L 2.984375 -24.84375 L 7.765625 -24.84375 L 18.734375 -9.71875 L 18.734375 -24.84375 L 24.34375 -24.84375 L 24.34375 0 L 19.546875 0 L 8.59375 -15.21875 L 8.59375 0 Z M 2.984375 0 "/></g></g></g><g fill="#ffffff" fill-opacity="1"><g transform="translate(207.345029, 241.307972)"><g><path d="M 8.9375 0 L 8.9375 -19.546875 L 1.0625 -19.546875 L 1.0625 -24.84375 L 22.46875 -24.84375 L 22.46875 -19.546875 L 14.578125 -19.546875 L 14.578125 0 Z M 8.9375 0 "/></g></g></g><g fill="#ffffff" fill-opacity="1"><g transform="translate(237.960421, 241.307972)"><g><path d="M 0.3125 0 L 10.1875 -24.84375 L 15.71875 -24.84375 L 25.578125 0 L 19.546875 0 L 17.890625 -4.296875 L 8.015625 -4.296875 L 6.359375 0 Z M 9.46875 -8.734375 L 16.46875 -8.734375 L 12.953125 -17.8125 Z M 9.46875 -8.734375 "/></g></g></g><g fill="#ffffff" fill-opacity="1"><g transform="translate(270.952477, 241.307972)"><g><path d="M 2.984375 0 L 2.984375 -24.84375 L 13.59375 -24.84375 C 15.476562 -24.84375 17.117188 -24.5 18.515625 -23.8125 C 19.910156 -23.125 20.988281 -22.140625 21.75 -20.859375 C 22.507812 -19.585938 22.890625 -18.0625 22.890625 -16.28125 C 22.890625 -14.46875 22.472656 -12.898438 21.640625 -11.578125 C 20.816406 -10.265625 19.660156 -9.28125 18.171875 -8.625 L 23.3125 0 L 16.78125 0 L 12.34375 -7.734375 L 8.625 -7.734375 L 8.625 0 Z M 8.546875 -12.484375 L 12.84375 -12.484375 C 14.238281 -12.484375 15.304688 -12.804688 16.046875 -13.453125 C 16.796875 -14.109375 17.171875 -15.039062 17.171875 -16.25 C 17.171875 -17.457031 16.796875 -18.382812 16.046875 -19.03125 C 15.304688 -19.6875 14.238281 -20.015625 12.84375 -20.015625 L 8.546875 -20.015625 Z M 8.546875 -12.484375 "/></g></g></g><g fill="#ffffff" fill-opacity="1"><g transform="translate(303.02223, 241.307972)"><g><path d="M 0.3125 0 L 10.1875 -24.84375 L 15.71875 -24.84375 L 25.578125 0 L 19.546875 0 L 17.890625 -4.296875 L 8.015625 -4.296875 L 6.359375 0 Z M 9.46875 -8.734375 L 16.46875 -8.734375 L 12.953125 -17.8125 Z M 9.46875 -8.734375 "/></g></g></g><g fill="#faa300" fill-opacity="1"><g transform="translate(118.466773, 271.127209)"><g><path d="M 1.5625 0 L 1.5625 -10.703125 L 5.703125 -10.703125 C 6.734375 -10.703125 7.554688 -10.441406 8.171875 -9.921875 C 8.796875 -9.410156 9.109375 -8.722656 9.109375 -7.859375 C 9.109375 -7.335938 8.984375 -6.878906 8.734375 -6.484375 C 8.492188 -6.085938 8.148438 -5.773438 7.703125 -5.546875 C 8.253906 -5.328125 8.675781 -5 8.96875 -4.5625 C 9.257812 -4.125 9.40625 -3.601562 9.40625 -3 C 9.40625 -2.070312 9.09375 -1.335938 8.46875 -0.796875 C 7.84375 -0.265625 6.988281 0 5.90625 0 Z M 2.90625 -1.25 L 5.875 -1.25 C 6.570312 -1.25 7.101562 -1.40625 7.46875 -1.71875 C 7.84375 -2.039062 8.03125 -2.488281 8.03125 -3.0625 C 8.03125 -3.632812 7.84375 -4.070312 7.46875 -4.375 C 7.09375 -4.6875 6.554688 -4.84375 5.859375 -4.84375 L 2.90625 -4.84375 Z M 2.90625 -6.078125 L 5.671875 -6.078125 C 6.335938 -6.078125 6.84375 -6.222656 7.1875 -6.515625 C 7.539062 -6.804688 7.71875 -7.21875 7.71875 -7.75 C 7.71875 -8.289062 7.539062 -8.707031 7.1875 -9 C 6.832031 -9.300781 6.328125 -9.453125 5.671875 -9.453125 L 2.90625 -9.453125 Z M 2.90625 -6.078125 "/></g></g></g><g fill="#faa300" fill-opacity="1"><g transform="translate(140.97292, 271.127209)"><g><path d="M 1.5625 0 L 1.5625 -10.703125 L 8.0625 -10.703125 L 8.0625 -9.453125 L 2.90625 -9.453125 L 2.90625 -6.078125 L 7.671875 -6.078125 L 7.671875 -4.828125 L 2.90625 -4.828125 L 2.90625 -1.25 L 8.234375 -1.25 L 8.234375 0 Z M 1.5625 0 "/></g></g></g><g fill="#faa300" fill-opacity="1"><g transform="translate(162.439143, 271.127209)"><g><path d="M 1.5625 0 L 1.5625 -10.703125 L 5.640625 -10.703125 C 6.390625 -10.703125 7.035156 -10.5625 7.578125 -10.28125 C 8.128906 -10 8.554688 -9.601562 8.859375 -9.09375 C 9.171875 -8.59375 9.328125 -7.984375 9.328125 -7.265625 C 9.328125 -6.398438 9.101562 -5.679688 8.65625 -5.109375 C 8.207031 -4.546875 7.59375 -4.171875 6.8125 -3.984375 L 9.5 0 L 7.875 0 L 5.265625 -3.84375 L 2.90625 -3.84375 L 2.90625 0 Z M 2.90625 -5.125 L 5.484375 -5.125 C 6.273438 -5.125 6.882812 -5.304688 7.3125 -5.671875 C 7.738281 -6.046875 7.953125 -6.578125 7.953125 -7.265625 C 7.953125 -7.953125 7.738281 -8.484375 7.3125 -8.859375 C 6.882812 -9.234375 6.273438 -9.421875 5.484375 -9.421875 L 2.90625 -9.421875 Z M 2.90625 -5.125 "/></g></g></g><g fill="#faa300" fill-opacity="1"><g transform="translate(185.09822, 271.127209)"><g><path d="M 5.125 0.203125 C 4.269531 0.203125 3.523438 0.0546875 2.890625 -0.234375 C 2.265625 -0.523438 1.78125 -0.929688 1.4375 -1.453125 C 1.101562 -1.984375 0.929688 -2.59375 0.921875 -3.28125 L 2.265625 -3.28125 C 2.285156 -2.601562 2.554688 -2.066406 3.078125 -1.671875 C 3.609375 -1.285156 4.289062 -1.09375 5.125 -1.09375 C 5.875 -1.09375 6.472656 -1.238281 6.921875 -1.53125 C 7.367188 -1.820312 7.59375 -2.234375 7.59375 -2.765625 C 7.59375 -3.265625 7.375 -3.664062 6.9375 -3.96875 C 6.507812 -4.269531 5.8125 -4.53125 4.84375 -4.75 C 3.53125 -5.070312 2.566406 -5.476562 1.953125 -5.96875 C 1.347656 -6.46875 1.046875 -7.128906 1.046875 -7.953125 C 1.046875 -8.859375 1.390625 -9.578125 2.078125 -10.109375 C 2.765625 -10.640625 3.691406 -10.90625 4.859375 -10.90625 C 6.066406 -10.90625 7.019531 -10.601562 7.71875 -10 C 8.414062 -9.40625 8.769531 -8.585938 8.78125 -7.546875 L 7.453125 -7.546875 C 7.441406 -8.179688 7.203125 -8.6875 6.734375 -9.0625 C 6.273438 -9.4375 5.648438 -9.625 4.859375 -9.625 C 4.097656 -9.625 3.5 -9.472656 3.0625 -9.171875 C 2.632812 -8.867188 2.421875 -8.460938 2.421875 -7.953125 C 2.421875 -7.515625 2.617188 -7.144531 3.015625 -6.84375 C 3.421875 -6.539062 4.144531 -6.265625 5.1875 -6.015625 C 6.550781 -5.671875 7.523438 -5.25 8.109375 -4.75 C 8.691406 -4.25 8.984375 -3.601562 8.984375 -2.8125 C 8.984375 -1.882812 8.632812 -1.148438 7.9375 -0.609375 C 7.238281 -0.0664062 6.300781 0.203125 5.125 0.203125 Z M 5.125 0.203125 "/></g></g></g><g fill="#faa300" fill-opacity="1"><g transform="translate(207.237329, 271.127209)"><g><path d="M 0.265625 0 L 4.671875 -10.703125 L 5.921875 -10.703125 L 10.328125 0 L 8.90625 0 L 7.890625 -2.4375 L 2.671875 -2.4375 L 1.703125 0 Z M 3.203125 -3.6875 L 7.390625 -3.6875 L 5.296875 -8.828125 Z M 3.203125 -3.6875 "/></g></g></g><g fill="#faa300" fill-opacity="1"><g transform="translate(230.064617, 271.127209)"><g><path d="M 1.5625 0 L 1.5625 -10.703125 L 2.8125 -10.703125 L 7.015625 -4.359375 L 11.203125 -10.703125 L 12.453125 -10.703125 L 12.453125 0 L 11.109375 0 L 11.109375 -8.1875 L 7.5625 -2.84375 L 6.453125 -2.84375 L 2.90625 -8.203125 L 2.90625 0 Z M 1.5625 0 "/></g></g></g><g fill="#faa300" fill-opacity="1"><g transform="translate(256.31751, 271.127209)"><g><path d="M 0.265625 0 L 4.671875 -10.703125 L 5.921875 -10.703125 L 10.328125 0 L 8.90625 0 L 7.890625 -2.4375 L 2.671875 -2.4375 L 1.703125 0 Z M 3.203125 -3.6875 L 7.390625 -3.6875 L 5.296875 -8.828125 Z M 3.203125 -3.6875 "/></g></g></g><g clip-path="url(#8e6e0e5a75)"><path fill="#faa300" d="M 253.207031 185.636719 L 253.207031 195.5 L 226.722656 195.5 L 226.722656 169.5 C 226.722656 157.132812 216.96875 146.941406 204.773438 146.222656 C 204.632812 146.222656 204.492188 146.207031 204.351562 146.207031 C 201.925781 142.796875 198.949219 139.757812 195.601562 137.253906 C 198.105469 136.640625 200.722656 136.3125 203.414062 136.3125 L 204.574219 136.34375 C 222.308594 136.953125 236.585938 151.625 236.585938 169.5 L 236.585938 185.640625 L 253.207031 185.640625 Z M 253.207031 185.636719 " fill-opacity="1" fill-rule="evenodd"/></g><g clip-path="url(#9ce879a4fd)"><path fill="#ffffff" d="M 187.492188 152.5 C 192.046875 156.757812 194.894531 162.816406 194.894531 169.5 L 194.894531 178.390625 C 194.894531 182.429688 191.609375 185.714844 187.570312 185.714844 C 183.546875 185.714844 180.246094 182.425781 180.246094 178.390625 L 180.246094 166.867188 C 180.605469 163.707031 181.605469 160.714844 183.109375 158.054688 C 182.25 157.191406 181.277344 156.414062 180.246094 155.753906 C 178.476562 154.640625 176.488281 153.839844 174.375 153.464844 C 172.214844 157.363281 170.824219 161.730469 170.382812 166.367188 L 170.382812 178.386719 C 170.382812 185.179688 174.34375 191.082031 180.089844 193.867188 C 181.875 194.730469 183.832031 195.308594 185.898438 195.496094 L 189.25 195.496094 C 191.253906 195.308594 193.164062 194.757812 194.902344 193.945312 C 200.726562 191.191406 204.777344 185.242188 204.777344 178.382812 L 204.777344 169.492188 C 204.777344 160.976562 201.539062 153.199219 196.230469 147.308594 C 195.808594 146.839844 195.351562 146.371094 194.902344 145.917969 C 192.707031 143.757812 190.21875 141.894531 187.496094 140.394531 C 185.273438 139.171875 182.894531 138.199219 180.390625 137.496094 C 177.589844 136.730469 174.644531 136.304688 171.59375 136.304688 C 171.265625 136.304688 170.921875 136.320312 170.574219 136.320312 C 152.777344 136.867188 138.425781 151.566406 138.425781 169.492188 L 138.425781 185.632812 L 121.792969 185.632812 L 121.792969 195.496094 L 148.277344 195.496094 L 148.277344 169.5 C 148.277344 157.085938 158.109375 146.863281 170.382812 146.222656 C 170.773438 146.207031 171.179688 146.191406 171.589844 146.191406 C 174.09375 146.191406 176.503906 146.582031 178.773438 147.316406 C 179.261719 147.492188 179.757812 147.664062 180.246094 147.863281 C 182.953125 148.945312 185.394531 150.542969 187.492188 152.5 Z M 187.492188 152.5 " fill-opacity="1" fill-rule="evenodd"/></g><g clip-path="url(#0eba6445a3)"><path fill="#faa300" d="M 203.410156 104.660156 C 209.390625 104.660156 214.242188 109.496094 214.242188 115.496094 C 214.242188 121.472656 209.390625 126.328125 203.410156 126.328125 C 197.433594 126.328125 192.578125 121.476562 192.578125 115.496094 C 192.578125 109.496094 197.417969 104.660156 203.410156 104.660156 Z M 203.410156 104.660156 " fill-opacity="1" fill-rule="evenodd"/></g><g clip-path="url(#975a8a5376)"><path fill="#ffffff" d="M 171.589844 104.660156 C 177.566406 104.660156 182.421875 109.496094 182.421875 115.496094 C 182.421875 121.472656 177.570312 126.328125 171.589844 126.328125 C 165.605469 126.328125 160.753906 121.476562 160.753906 115.496094 C 160.753906 109.496094 165.609375 104.660156 171.589844 104.660156 Z M 171.589844 104.660156 " fill-opacity="1" fill-rule="evenodd"/></g></svg>